<svg version="1.1" id="Layer_1" xmlns="http://www.w3.org/2000/svg" xmlns:xlink="http://www.w3.org/1999/xlink" x="0px" y="0px" width="100%" viewBox="0 0 117 153" enable-background="new 0 0 117 153" xml:space="preserve">

<path fill="#C8D200" opacity="1.000000" stroke="none" d="
M1.000000,62.468658 
	C1.676572,61.391148 2.738207,60.902885 2.972286,60.155449 
	C6.839328,47.807667 13.166668,36.820408 22.125139,27.590096 
	C26.644579,22.933512 31.985250,18.911942 37.474731,15.421211 
	C40.636269,13.410807 40.093067,11.808558 38.792984,9.497386 
	C37.690697,7.537838 36.448715,5.656868 34.976376,3.266849 
	C51.301800,3.266849 66.978966,3.266849 83.656235,3.266849 
	C75.499680,17.499157 67.630753,31.229572 59.529270,45.365784 
	C57.290417,41.640274 55.301414,38.330532 52.951084,34.419525 
	C47.904732,37.821835 42.715961,40.831402 38.084816,44.537743 
	C26.056116,54.164421 15.504260,65.147514 9.220490,79.519234 
	C5.730530,87.501190 4.252786,95.724075 7.839991,104.718468 
	C7.567913,105.427673 7.441247,105.554489 7.314580,105.681305 
	C5.394391,101.560379 3.474201,97.439461 1.277006,93.659271 
	C1.000000,83.645775 1.000000,73.291542 1.000000,62.468658 
z" data-index="1" style="opacity: 1;"></path>
<path fill="#A6358A" opacity="1.000000" stroke="none" d="
M35.468658,154.000000 
	C42.986603,140.107941 50.973209,126.215889 59.353062,111.639809 
	C61.633476,115.419388 63.588894,118.660316 65.739891,122.225395 
	C77.772285,115.817772 88.110451,107.468575 96.846817,97.289696 
	C104.126732,88.807755 110.774025,79.622482 112.210182,68.171471 
	C112.931870,62.417168 111.804512,56.430958 111.542755,51.143856 
	C113.190445,54.952850 115.234436,59.677998 117.639214,64.201569 
	C118.000000,73.687561 118.000000,83.375122 117.634323,93.335754 
	C116.873314,94.106087 116.257957,94.547333 116.114990,95.108864 
	C112.928055,107.625763 106.983192,118.649834 97.733635,127.657326 
	C91.623421,133.607651 85.002480,139.033508 78.807625,144.519363 
	C80.128532,147.506454 81.564262,150.753235 83.000000,154.000000 
	C67.312439,154.000000 51.624878,154.000000 35.468658,154.000000 
z" data-index="2" style="opacity: 1;"></path>

<path fill="#575756" opacity="1.000000" stroke="none" d="
M85.750481,65.459015 
	C93.584846,82.219856 84.857086,100.196030 70.514915,105.814041 
	C60.420227,109.768265 47.064808,108.409637 37.901707,98.511299 
	C30.163649,90.152344 27.806690,77.345093 32.263138,67.277756 
	C37.278404,55.948013 46.201130,49.845890 58.006123,49.257389 
	C70.047569,48.657101 79.714294,54.043282 85.750481,65.459015 
M62.061264,82.483772 
	C61.673790,84.446815 61.286320,86.409851 60.892727,88.403908 
	C68.888611,89.569252 70.931000,87.574440 68.948822,80.860710 
	C66.809235,81.130653 64.584511,81.411346 62.061264,82.483772 
M51.139435,88.539360 
	C52.880657,88.658012 54.621876,88.776665 56.551147,88.908127 
	C56.551147,86.040268 56.551147,83.695374 56.551147,81.399963 
	C53.872559,81.399963 51.639050,81.399963 48.401737,81.399963 
	C49.197548,84.033669 49.808342,86.055077 51.139435,88.539360 
M49.035477,73.546356 
	C50.607178,78.413841 53.948196,75.153038 56.666855,75.629715 
	C56.666855,72.963608 56.666855,70.743149 56.666855,68.404243 
	C52.631592,67.684486 49.379272,67.647400 49.035477,73.546356 
M62.008308,71.627625 
	C62.432137,76.501343 63.449829,76.968925 69.705284,75.128639 
	C70.465996,71.777176 69.483177,69.193970 66.038139,68.214554 
	C64.110229,67.666451 61.898846,67.617996 62.008308,71.627625 
M61.008991,97.387215 
	C61.199703,98.517715 61.390415,99.648216 61.581131,100.778717 
	C61.981647,100.869125 62.382168,100.959541 62.782688,101.049950 
	C64.288872,98.721756 65.795067,96.393562 67.301254,94.065369 
	C66.693352,93.519173 66.085449,92.972977 65.477547,92.426788 
	C63.992039,93.817802 62.506527,95.208824 61.008991,97.387215 
M54.031174,63.982258 
	C57.436779,62.848450 57.780960,61.633034 55.864796,56.421009 
	C54.670177,58.040539 53.395947,59.330883 52.709213,60.881432 
	C52.360184,61.669502 53.068935,62.926067 54.031174,63.982258 
M78.289436,84.890434 
	C79.761345,84.293961 81.233261,83.697479 82.705170,83.101006 
	C82.086670,82.486900 81.468163,81.872787 80.849655,81.258675 
	C78.775658,81.258675 76.701668,81.258675 74.327156,81.258675 
	C74.327156,83.043121 74.327156,84.575584 74.327156,86.442314 
	C75.577888,85.938469 76.603622,85.525269 78.289436,84.890434 
M78.509453,72.786285 
	C77.313858,72.128227 76.118263,71.470161 74.368256,70.506950 
	C74.368256,72.767021 74.368256,74.140442 74.368256,75.583321 
	C76.821915,75.583321 78.952438,75.583321 81.885712,75.583321 
	C80.552010,74.335121 79.865585,73.692703 78.509453,72.786285 
M64.113739,57.689716 
	C63.469917,57.603447 62.826096,57.517174 62.182274,57.430904 
	C62.182274,59.507263 62.182274,61.583622 62.182274,64.098007 
	C64.151413,63.831470 65.483864,63.651115 67.456535,63.384098 
	C66.281334,61.251198 65.440384,59.724945 64.113739,57.689716 
M52.866135,96.660683 
	C53.939365,97.937363 55.012596,99.214050 56.585190,101.084763 
	C57.341610,96.180344 57.499332,92.737320 51.557602,93.200844 
	C51.931232,94.320198 52.221992,95.191277 52.866135,96.660683 
M40.795368,75.991531 
	C42.404240,74.635567 44.013111,73.279602 45.621983,71.923637 
	C45.126431,71.345238 44.630878,70.766838 44.135330,70.188438 
	C41.935307,71.746529 39.735287,73.304619 37.535267,74.862701 
	C37.739620,75.185410 37.943977,75.508118 38.148335,75.830826 
	C38.789364,75.884598 39.430397,75.938377 40.795368,75.991531 
M44.872597,85.019272 
	C44.200359,80.530174 41.346859,80.502480 38.072144,81.336311 
	C37.848404,81.835220 37.624664,82.334122 37.400925,82.833031 
	C39.879128,83.791916 42.357334,84.750809 44.872597,85.019272 
z" data-index="4" style="opacity: 1; visibility: visible;"></path>
<path fill="#C8D200" opacity="1.000000" stroke="none" d="
M7.887469,105.113571 
	C8.292987,105.491768 8.505615,106.057251 8.718243,106.622742 
	C8.378101,106.455711 8.037959,106.288681 7.506199,105.901474 
	C7.441247,105.554489 7.567913,105.427673 7.887469,105.113571 
z" data-index="5"></path>

<path fill="#000000" opacity="1.000000" stroke="none" d="
M50.779285,88.307922 
	C49.808342,86.055077 49.197548,84.033669 48.401737,81.399963 
	C51.639050,81.399963 53.872559,81.399963 56.551147,81.399963 
	C56.551147,83.695374 56.551147,86.040268 56.551147,88.908127 
	C54.621876,88.776665 52.880657,88.658012 50.779285,88.307922 
z" data-index="7" style="opacity: 1; visibility: hidden;"></path>
<path fill="#000000" opacity="1.000000" stroke="none" d="
M49.028324,73.120224 
	C49.379272,67.647400 52.631592,67.684486 56.666855,68.404243 
	C56.666855,70.743149 56.666855,72.963608 56.666855,75.629715 
	C53.948196,75.153038 50.607178,78.413841 49.028324,73.120224 
z" data-index="8" style="opacity: 1; visibility: visible; fill: rgb(255, 255, 255);"></path>

<path fill="#000000" opacity="1.000000" stroke="none" d="
M61.015007,96.993530 
	C62.506527,95.208824 63.992039,93.817802 65.477547,92.426788 
	C66.085449,92.972977 66.693352,93.519173 67.301254,94.065369 
	C65.795067,96.393562 64.288872,98.721756 62.782688,101.049950 
	C62.382168,100.959541 61.981647,100.869125 61.581131,100.778717 
	C61.390415,99.648216 61.199703,98.517715 61.015007,96.993530 
z" data-index="10" style="opacity: 1; visibility: hidden;"></path>
<path fill="#000000" opacity="1.000000" stroke="none" d="
M53.665340,63.976551 
	C53.068935,62.926067 52.360184,61.669502 52.709213,60.881432 
	C53.395947,59.330883 54.670177,58.040539 55.864796,56.421009 
	C57.780960,61.633034 57.436779,62.848450 53.665340,63.976551 
z" data-index="11" style="opacity: 1; visibility: visible; fill: rgb(255, 255, 255);"></path>

<path fill="#000000" opacity="1.000000" stroke="none" d="
M78.844307,72.918289 
	C79.865585,73.692703 80.552010,74.335121 81.885712,75.583321 
	C78.952438,75.583321 76.821915,75.583321 74.368256,75.583321 
	C74.368256,74.140442 74.368256,72.767021 74.368256,70.506950 
	C76.118263,71.470161 77.313858,72.128227 78.844307,72.918289 
z" data-index="13" style="opacity: 1; visibility: hidden;"></path>

<path fill="#000000" opacity="1.000000" stroke="none" d="
M52.689445,96.361519 
	C52.221992,95.191277 51.931232,94.320198 51.557602,93.200844 
	C57.499332,92.737320 57.341610,96.180344 56.585190,101.084763 
	C55.012596,99.214050 53.939365,97.937363 52.689445,96.361519 
z" data-index="15" style="opacity: 1; visibility: hidden;"></path>

<path fill="#000000" opacity="1.000000" stroke="none" d="
M44.854065,85.364487 
	C42.357334,84.750809 39.879128,83.791916 37.400925,82.833031 
	C37.624664,82.334122 37.848404,81.835220 38.072144,81.336311 
	C41.346859,80.502480 44.200359,80.530174 44.854065,85.364487 
z" data-index="17" style="opacity: 1; visibility: hidden;"></path>
</svg>